<?xml version="1.0" encoding="UTF-8" standalone="no"?>
<svg width="31px" height="32px" viewBox="0 0 31 32" version="1.1" xmlns="http://www.w3.org/2000/svg" xmlns:xlink="http://www.w3.org/1999/xlink" xmlns:sketch="http://www.bohemiancoding.com/sketch/ns">
    <!-- Generator: Sketch 3.5.2 (25235) - http://www.bohemiancoding.com/sketch -->
    <title>Tag</title>
    <desc>Created with Sketch.</desc>
    <defs></defs>
    <g id="Page-1" stroke="none" stroke-width="1" fill="none" fill-rule="evenodd" sketch:type="MSPage">
        <g id="Tablet_listado" sketch:type="MSArtboardGroup" transform="translate(-115.000000, -416.000000)" fill="#50E3C2">
            <path d="M144.674768,416.636369 C144.50386,416.141562 143.968516,415.880823 143.479669,416.05308 C142.990508,416.225337 142.732261,416.765954 142.902541,417.260761 C144.347404,421.449836 141.479356,424.576817 139.294311,426.252322 L138.409297,424.974671 C138.11335,424.547637 137.448568,424.191828 136.933017,424.183983 L131.976374,424.206575 C131.461137,424.198417 130.692994,424.437192 130.270437,424.736523 L115.666924,435.072566 C114.959729,435.573335 114.787565,436.558557 115.282695,437.273941 L121.920142,446.855693 C122.415586,447.571077 123.21169,447.485419 123.918884,446.984964 L138.522398,436.649235 C138.944955,436.34959 139.428775,435.701665 139.59874,435.209054 L141.150735,430.273219 C141.319758,429.780294 141.21671,429.027886 140.920449,428.600538 L140.381021,427.822087 C143.318815,425.554509 146.366881,421.542711 144.674768,416.636369 L144.674768,416.636369 Z M137.880237,431.314291 C136.748286,432.115019 135.188123,431.836709 134.395789,430.693036 C133.603141,429.548422 133.878039,427.972067 135.010618,427.170398 C135.908827,426.534396 137.07565,426.580833 137.915423,427.198009 C137.492552,427.455296 137.202574,427.603393 137.14728,427.62975 C136.679169,427.85315 136.479043,428.417927 136.699276,428.891084 C136.859502,429.234657 137.196919,429.43578 137.549102,429.43578 C137.682938,429.43578 137.818974,429.406286 137.948411,429.344788 C138.249385,429.201398 138.573293,429.0282 138.911025,428.826449 C139.063711,429.757075 138.696447,430.736963 137.880237,431.314291 L137.880237,431.314291 Z" id="Tag" sketch:type="MSShapeGroup"></path>
        </g>
    </g>
</svg>