<?xml version="1.0" encoding="UTF-8" standalone="no"?>
<svg width="17px" height="16px" viewBox="0 0 17 16" version="1.1" xmlns="http://www.w3.org/2000/svg" xmlns:xlink="http://www.w3.org/1999/xlink" xmlns:sketch="http://www.bohemiancoding.com/sketch/ns">
    <!-- Generator: Sketch 3.5.2 (25235) - http://www.bohemiancoding.com/sketch -->
    <title>Group</title>
    <desc>Created with Sketch.</desc>
    <defs></defs>
    <g id="Page-1" stroke="none" stroke-width="1" fill="none" fill-rule="evenodd" sketch:type="MSPage">
        <g id="Tablet_ONEpage" sketch:type="MSArtboardGroup" transform="translate(-508.000000, -4751.000000)" fill="#0000FD">
            <g id="Group" sketch:type="MSLayerGroup" transform="translate(508.000000, 4751.000000)">
                <path d="M14.0038169,0 L2.00054527,0 C0.900338421,0 0,0.899180584 0,1.99797257 L0,13.985808 C0,15.0847858 0.900338421,15.9837805 2.00054527,15.9837805 L8.07122316,15.9837805 L8.07122316,10.2526659 L6.15479384,10.2526659 L6.15479384,7.75585072 L8.07122316,7.75585072 L8.07122316,6.50502696 C8.07122316,4.57693697 9.49672798,3.06665557 11.3165728,3.06665557 L13.0830078,3.06665557 L13.0830078,5.88593426 L11.5026701,5.88593426 C11.0889759,5.88593426 10.9676405,6.12308895 10.9676405,6.45094231 L10.9676405,7.75585072 L13.0830078,7.75585072 L13.0830078,10.2526659 L10.9676405,10.2526659 L10.9676405,15.9837805 L14.0036308,15.9837805 C15.1042098,15.9837805 16.0041761,15.0847858 16.0041761,13.985808 L16.0041761,1.99797257 C16.0043622,0.899180584 15.1043959,0 14.0038169,0 L14.0038169,0 Z" id="S-Facebook" sketch:type="MSShapeGroup"></path>
            </g>
        </g>
    </g>
</svg>