<?xml version="1.0" encoding="UTF-8" standalone="no"?>
<svg width="23px" height="23px" viewBox="0 0 23 23" version="1.1" xmlns="http://www.w3.org/2000/svg" xmlns:xlink="http://www.w3.org/1999/xlink" xmlns:sketch="http://www.bohemiancoding.com/sketch/ns">
    <!-- Generator: Sketch 3.5.2 (25235) - http://www.bohemiancoding.com/sketch -->
    <title>Group 2 Copy 8</title>
    <desc>Created with Sketch.</desc>
    <defs></defs>
    <g id="Page-1" stroke="none" stroke-width="1" fill="none" fill-rule="evenodd" sketch:type="MSPage">
        <g id="Tablet_ONEpage" sketch:type="MSArtboardGroup" transform="translate(-354.000000, -2853.000000)">
            <g id="Group-2-Copy-8" sketch:type="MSLayerGroup" transform="translate(355.000000, 2854.000000)">
                <path d="M0,10.2834879 C0,15.9631562 4.6099929,20.5669758 10.2967295,20.5669758 C15.9829758,20.5669758 20.5934591,15.9631562 20.5934591,10.2834879 C20.5934591,4.60455414 15.983221,0 10.2967295,0 C4.6099929,0 0,4.60479898 0,10.2834879 Z" id="Circled-plus-Copy-2" stroke="#0000FD" stroke-width="2" sketch:type="MSShapeGroup"></path>
                <path d="M11.5499886,11.5348905 L11.5499886,16.4660678 L9.04396077,16.4660678 L9.04396077,11.5348905 L4.1064338,11.5348905 L4.1064338,9.03233022 L9.04396077,9.03233022 L9.04371561,4.10164261 L11.5499886,4.10115292 L11.5499886,9.03208538 L16.4867801,9.03184053 L16.4872704,11.5348905 L11.5499886,11.5348905 L11.5499886,11.5348905 Z" id="Path" fill="#0000FD" sketch:type="MSShapeGroup"></path>
            </g>
        </g>
    </g>
</svg>