<?xml version="1.0" encoding="UTF-8" standalone="no"?>
<svg width="29px" height="29px" viewBox="0 0 29 29" version="1.1" xmlns="http://www.w3.org/2000/svg" xmlns:xlink="http://www.w3.org/1999/xlink" xmlns:sketch="http://www.bohemiancoding.com/sketch/ns">
    <!-- Generator: Sketch 3.5.2 (25235) - http://www.bohemiancoding.com/sketch -->
    <title>Group</title>
    <desc>Created with Sketch.</desc>
    <defs></defs>
    <g id="Page-1" stroke="none" stroke-width="1" fill="none" fill-rule="evenodd" sketch:type="MSPage">
        <g id="Desktop_listado" sketch:type="MSArtboardGroup" transform="translate(-589.000000, -454.000000)" fill="#50E3C2">
            <g id="Group" sketch:type="MSLayerGroup" transform="translate(589.000000, 454.000000)">
                <path d="M14.4511416,0 C6.4706229,0 0,6.46261544 0,14.4331849 C0,22.404382 6.4706229,28.8663699 14.4511416,28.8663699 C22.432917,28.8663699 28.9032257,22.404382 28.9032257,14.4331849 C28.9032257,6.46230167 22.432917,0 14.4511416,0 L14.4511416,0 Z M14.4511416,25.728721 C8.2057778,25.728721 3.14168912,20.6714585 3.14168912,14.4331849 C3.14168912,8.19459763 8.2057778,3.1376489 14.4511416,3.1376489 C20.6983904,3.1376489 25.7615366,8.19459763 25.7615366,14.4331849 C25.7615366,20.6711447 20.6983904,25.728721 14.4511416,25.728721 L14.4511416,25.728721 Z" id="Shape" sketch:type="MSShapeGroup"></path>
                <path d="M15.1998107,7 L13,7 L13,15.6128462 L18.3493541,20.9546935 L19.9044902,19.401871 L15.1998107,14.702928 L15.1998107,7 Z" id="Shape" sketch:type="MSShapeGroup"></path>
            </g>
        </g>
    </g>
</svg>