<?xml version="1.0" encoding="utf-8"?>
<!-- Generator: Adobe Illustrator 15.1.0, SVG Export Plug-In . SVG Version: 6.00 Build 0)  -->
<!DOCTYPE svg PUBLIC "-//W3C//DTD SVG 1.1//EN" "http://www.w3.org/Graphics/SVG/1.1/DTD/svg11.dtd">
<svg version="1.1" id="Capa_1" xmlns:sketch="http://www.bohemiancoding.com/sketch/ns"
	 xmlns="http://www.w3.org/2000/svg" xmlns:xlink="http://www.w3.org/1999/xlink" x="0px" y="0px" width="83.072px"
	 height="83.072px" viewBox="0 0 83.072 83.072" enable-background="new 0 0 83.072 83.072" xml:space="preserve">
<title>Page 1</title>
<desc>Created with Sketch.</desc>
<g id="Page-1_1_" sketch:type="MSPage">
	<g id="Desktop_one_page" transform="translate(-38.000000, -12.000000)" sketch:type="MSArtboardGroup">
		<g id="Page-1" transform="translate(38.000000, 12.000000)" sketch:type="MSLayerGroup">
			<g id="Clip-2">
			</g>
			<defs>
				<filter id="Adobe_OpacityMaskFilter" filterUnits="userSpaceOnUse" x="0" y="0" width="82.833" height="82.236">
					<feColorMatrix  type="matrix" values="1 0 0 0 0  0 1 0 0 0  0 0 1 0 0  0 0 0 1 0"/>
				</filter>
			</defs>
			<mask maskUnits="userSpaceOnUse" x="0" y="0" width="82.833" height="82.236" id="mask-2">
				<g filter="url(#Adobe_OpacityMaskFilter)">
					<path id="path-1" fill="#FFFFFF" d="M0.001-0.001h82.833v82.237H0.001V-0.001z"/>
				</g>
			</mask>
			<path id="Fill-1" sketch:type="MSShapeGroup" mask="url(#mask-2)" fill="#0000FD" d="M75.468,67.881
				c-0.732,0.35-1.462,0.498-2.128,0.498c-0.464,0-0.892-0.074-1.269-0.213c0.345,0.092,0.718,0.145,1.104,0.145
				c0.738,0,1.508-0.18,2.238-0.52l0.021-0.01c3.959-2.176,6.348-5.605,6.93-9.846C81.823,62.207,79.472,65.664,75.468,67.881
				L75.468,67.881z M71.66,15.279c-0.278-0.27-0.57-0.557-0.88-0.833c0.385,0.331,0.746,0.682,1.094,1.002
				c3.684,3.439,6.098,7.289,6.582,12.391c0.127,1.334,0.258,2.668,0.379,4c-0.133-1.27-0.268-2.543-0.398-3.814
				c-0.492-4.678-2.596-8.678-6.607-12.582L71.66,15.279z M70.194,52.805c-0.607,1.41-1.723,2.49-3.135,3.049
				c-0.85,0.336-1.718,0.508-2.574,0.508c-1.447,0-2.779-0.514-3.856-1.398c-0.771,1.621-1.36,3.213-1.708,4.807
				c0.188-1.574,0.654-3.23,1.407-5.053c-0.197-0.184-0.377-0.383-0.55-0.592c-0.521,1.227-0.963,2.438-1.252,3.641
				c0.186-1.23,0.535-2.52,1.043-3.896c-0.191-0.254-0.371-0.527-0.529-0.816c-0.334,0.852-0.635,1.703-0.866,2.545
				c0.168-0.883,0.438-1.814,0.757-2.77c-0.097-0.186-0.195-0.371-0.275-0.568c-0.078-0.189-0.156-0.385-0.231-0.578
				c-0.209,0.559-0.405,1.115-0.567,1.668c0.133-0.594,0.308-1.203,0.502-1.826c-0.172-0.42-0.34-0.844-0.514-1.268
				c-0.09,0.262-0.197,0.521-0.281,0.777c0.074-0.273,0.178-0.562,0.258-0.844c-1.633-4.039-3.266-8.109-4.857-12.07
				c-0.758-1.896-1.52-3.791-2.283-5.688c-1.145,3.934-1.435,7.354-0.918,10.656l0.018,0.133l1.863,4.65
				c0.692,1.725,0.698,3.545,0.019,5.127c-0.606,1.41-1.72,2.492-3.134,3.049c-0.852,0.338-1.717,0.51-2.575,0.51
				c-0.832,0-1.634-0.162-2.382-0.479c-1.612-0.582-2.799-1.775-3.518-3.541c-1.27-3.104-2.539-6.27-3.766-9.328
				c-0.512-1.277-1.023-2.557-1.537-3.83c0,0-2.118-5.27-2.648-6.59c-1.104,3.861-1.381,7.232-0.873,10.488
				c0.17,1.084,0.638,2.129,1.129,3.236c0.211,0.479,0.432,0.975,0.623,1.469c0.854,2.191,0.699,4.213-0.459,6.008
				c-1.149,1.779-2.842,2.682-5.037,2.682c-0.287,0-0.588-0.018-0.894-0.049c-2.383-0.252-4.138-1.596-5.077-3.895
				c-1.258-3.086-2.518-6.23-3.736-9.273c-0.521-1.297-1.037-2.592-1.561-3.887l-1.23-3.059c-0.866-2.15-1.732-4.303-2.592-6.455
				c-0.783-1.951-0.684-3.818,0.285-5.553c1.117-1.99,2.969-3.043,5.358-3.043c0.091,0,0.187,0,0.28,0.004
				c2.588,0.088,4.488,1.393,5.5,3.775c0.697,1.643,1.373,3.324,2.029,4.951c0.322,0.809,0.646,1.615,0.978,2.422
				c0.051,0.127,0.103,0.254,0.155,0.381c0.021-0.064,0.037-0.127,0.055-0.191c0.414-1.43,0.843-2.908,1.363-4.328
				c0.871-2.373,2.097-4.148,3.746-5.43c1.074-1.131,2.49-1.727,4.217-1.771c0.141-0.01,0.281-0.016,0.423-0.016
				c0.536,0,1.071,0.078,1.587,0.23c1.511,0.389,2.693,1.279,3.516,2.646c0.246,0.363,0.444,0.727,0.594,1.078
				c0.926,2.234,1.912,4.646,3.064,7.486c0.006-0.031,0.018-0.066,0.029-0.1c0.41-1.428,0.84-2.902,1.357-4.318
				c1.002-2.73,2.479-4.684,4.518-5.975c1.306-0.824,2.605-1.246,3.865-1.246c1.164,0,2.287,0.361,3.328,1.072
				c1.008,0.689,1.918,1.793,2.369,2.887c2.725,6.574,5.414,13.295,8.014,19.793l1.152,2.865
				C70.867,49.404,70.873,51.225,70.194,52.805L70.194,52.805z M59.317,61.775c0,0.008-0.004,0.014-0.004,0.02v-0.012v0.018
				c0,0.006-0.002,0.014-0.002,0.014c-0.004-0.008-0.004-0.016-0.004-0.023L59.317,61.775c0.152-1.873,0.715-3.834,1.733-6.078
				c0.099,0.156,0.2,0.312,0.308,0.465C60.392,58.061,59.671,59.914,59.317,61.775L59.317,61.775z M59.808,63.24
				c-0.007-0.09-0.013-0.18-0.021-0.27c0.003-0.012,0.003-0.029,0.003-0.041c0,0.01,0,0.018-0.003,0.029
				c-0.003-0.012-0.003-0.021-0.003-0.031l0.012-0.018c0.209-1.885,0.847-3.871,1.992-6.18c0.112,0.143,0.226,0.271,0.348,0.398
				c0.019,0.021,0.04,0.043,0.056,0.064C61.058,59.242,60.206,61.234,59.808,63.24L59.808,63.24z M63.194,59.008
				c-0.104-0.088-0.227-0.162-0.385-0.355c-1.199,2.059-2.101,4.047-2.525,6.064c-0.006-0.203-0.014-0.406-0.025-0.609
				c0.004-0.02,0.006-0.031,0.006-0.051c0,0.014-0.002,0.025-0.006,0.037v-0.033l0.012-0.012c0.258-1.814,0.933-3.725,2.107-5.953
				c0.521,0.504,1.03,1.02,1.534,1.543C63.675,59.426,63.438,59.215,63.194,59.008L63.194,59.008z M63.763,60.502
				c-0.104-0.078-0.224-0.139-0.377-0.311c-1.254,2.039-2.207,4.01-2.652,6.012c-0.002,0.002-0.002,0.006-0.006,0.012
				c0-0.078,0-0.162,0-0.236c0.004-0.246,0.004-0.492,0.004-0.736c0.002-0.018,0.002-0.035,0.008-0.055
				c-0.006,0.012-0.006,0.025-0.008,0.037v-0.029l0.015-0.018c0.31-1.721,1.013-3.535,2.2-5.666c0.902,0.773,1.777,1.59,2.638,2.418
				C64.985,61.443,64.382,60.961,63.763,60.502L63.763,60.502z M64.329,61.992c-0.104-0.062-0.223-0.109-0.37-0.258
				c-1.229,1.895-2.192,3.727-2.698,5.592c-0.012,0.002-0.015,0.078-0.025,0.086c-0.053,0.486-0.107,0.971-0.159,1.457
				c0.012-0.094,0.018-0.189,0.022-0.287c0.012-0.498,0.037-1.008,0.066-1.5c0.012-0.236,0.025-0.469,0.034-0.703
				c0.006-0.025,0.009-0.049,0.015-0.062v-0.004c0.365-1.633,1.102-3.354,2.299-5.375c1.32,0.979,2.596,2.061,3.834,3.148
				C66.364,63.355,65.366,62.646,64.329,61.992L64.329,61.992z M56.245,73.799c0.081,0.006,0.174,0.006,0.271,0.006
				c0.735,0,1.512-0.174,2.244-0.506c1.51-0.689,2.562-2.15,2.692-3.732c0.041-0.469,0.09-0.943,0.146-1.404
				c0.025-0.217,0.049-0.434,0.071-0.65c0.006-0.029,0.009-0.051,0.013-0.062l0.006-0.006c0.416-1.535,1.182-3.156,2.392-5.076
				c0.006,0,0.006,0.002,0.012,0.006c1.708,1.074,3.347,2.324,4.931,3.553c-1.346-0.869-2.707-1.709-4.131-2.438
				c-0.1-0.053-0.215-0.088-0.358-0.215c-1.212,1.754-2.181,3.449-2.745,5.172c-0.016,0.008-0.018,0.074-0.029,0.08
				c-0.111,0.654-0.24,1.307-0.335,1.963c-0.18,1.223-1.043,2.496-2.399,3.127c-0.717,0.33-1.435,0.48-2.088,0.48
				c-0.033,0-0.066,0-0.1,0c-0.721,0-1.309-0.186-1.789-0.492c-0.035-0.023-0.072-0.047-0.109-0.068
				C55.336,73.689,55.771,73.783,56.245,73.799L56.245,73.799z M55.649,73.105c0.133,0.018,0.283,0.021,0.434,0.021
				c0.741,0,1.518-0.174,2.253-0.504c1.497-0.674,2.562-2.131,2.735-3.699c-0.021,0.201-0.043,0.404-0.062,0.607
				c-0.108,1.322-0.991,2.703-2.432,3.363c-0.706,0.318-1.413,0.467-2.062,0.467c-0.088,0-0.175-0.002-0.259-0.008
				c-0.599-0.021-1.103-0.168-1.53-0.412C55.019,73.029,55.325,73.084,55.649,73.105L55.649,73.105z M54.245,71.686
				c0.066,0.012,0.133,0.025,0.205,0.035c0.24,0.033,0.492,0.055,0.74,0.055c0.766,0,1.539-0.164,2.293-0.5
				c1.258-0.555,2.195-1.594,2.629-2.82c-0.254,1.244-1.11,2.414-2.422,3c-0.695,0.307-1.394,0.451-2.047,0.451
				c-0.184,0-0.359-0.012-0.537-0.035C54.795,71.842,54.509,71.779,54.245,71.686L54.245,71.686z M55.047,72.412
				c0.196,0.027,0.394,0.039,0.597,0.039c0.756,0,1.518-0.168,2.271-0.502c1.335-0.596,2.313-1.775,2.67-3.129
				c-0.128,1.35-1.017,2.707-2.449,3.352c-0.694,0.312-1.397,0.461-2.051,0.461c-0.133,0-0.267-0.008-0.399-0.018
				c-0.451-0.031-0.851-0.137-1.203-0.299C54.659,72.361,54.851,72.393,55.047,72.412L55.047,72.412z M54.733,71.104
				c0.775,0,1.559-0.172,2.328-0.504c1.17-0.506,2.069-1.449,2.56-2.572c-0.333,1.145-1.163,2.174-2.374,2.703
				c-0.697,0.307-1.396,0.451-2.057,0.451c-0.226,0-0.444-0.018-0.66-0.049c-0.127-0.018-0.254-0.039-0.375-0.066
				C54.347,71.09,54.54,71.104,54.733,71.104L54.733,71.104z M54.272,70.432c0.785,0,1.582-0.172,2.363-0.506
				c1.051-0.453,1.891-1.238,2.417-2.191c-0.411,0.975-1.187,1.814-2.249,2.277c-0.703,0.305-1.406,0.449-2.07,0.449
				c-0.168,0-0.326-0.016-0.485-0.033C54.254,70.428,54.265,70.432,54.272,70.432L54.272,70.432z M56.208,69.254
				c0.912-0.389,1.659-1.016,2.197-1.781c-0.451,0.779-1.146,1.432-2.041,1.822c-0.713,0.301-1.422,0.445-2.092,0.445h-0.024
				C54.901,69.688,55.563,69.531,56.208,69.254L56.208,69.254z M55.458,67.859c0.382-0.172,0.734-0.383,1.057-0.627
				c-0.312,0.246-0.656,0.455-1.039,0.617C55.47,67.854,55.464,67.855,55.458,67.859L55.458,67.859z M55.782,68.58
				c0.775-0.328,1.431-0.832,1.951-1.445c-0.451,0.607-1.062,1.117-1.818,1.438c-0.422,0.182-0.852,0.301-1.273,0.371
				C55.022,68.859,55.405,68.738,55.782,68.58L55.782,68.58z M65.458,64.98c-0.102-0.041-0.214-0.064-0.354-0.168
				c-1.188,1.609-2.168,3.174-2.793,4.752c-0.016,0.008-0.021,0.064-0.033,0.074c-0.149,0.604-0.312,1.201-0.445,1.807
				c-0.248,1.121-1.088,2.285-2.368,2.891c-0.706,0.326-1.409,0.488-2.053,0.5c-0.056,0-0.112,0-0.165,0
				c-0.604,0-1.114-0.131-1.54-0.35c-1.345-0.691-2.71-1.32-4.065-1.984c-0.855-0.41-1.711-0.828-2.562-1.244
				c-1.179,1.584-2.146,3.127-2.772,4.688c-0.252,0.629-0.346,1.229-0.496,1.84c-0.17,0.697-0.521,1.389-1.172,2.043
				c-2.232,1.379-4.527,2.062-6.836,2.062c-1.941,0-3.891-0.482-5.824-1.453c-2.049-1.02-4.112-2.072-6.184-3.158
				c-5.918-3.09-11.63-6.482-17.14-10.125c-4.268-2.963-6.593-7.176-6.859-12.484c-0.252-4.699-0.463-9.398-0.692-14.102
				c-0.246-4.703-0.517-9.406-0.735-14.113c-0.09-1.918,0.09-3.689,0.513-5.316c0.786-3.021,2.613-5.545,5.546-7.536
				C6.475,13.569,6.52,13.536,6.57,13.5c-0.083,0.063-0.168,0.122-0.249,0.187c-2.881,2.008-4.723,4.594-5.469,7.682
				c-0.401,1.66-0.552,3.453-0.446,5.33c0.17,3.125,0.369,6.299,0.562,9.371c0.096,1.492,0.187,2.98,0.278,4.473
				c0.08,1.379,0.158,2.76,0.235,4.139c0.179,3.172,0.363,6.445,0.554,9.664c0.32,5.328,2.627,9.559,6.863,12.574
				c5.408,3.654,11.014,6.979,16.667,9.893c2.021,1.041,4.047,2.059,6.025,3.02c1.895,0.93,3.818,1.398,5.73,1.398
				c2.351,0,4.681-0.709,6.922-2.111l0.074-0.062c0.685-0.723,1.093-1.518,1.246-2.43c0.028-0.18,0.059-0.355,0.08-0.529
				c0.066-0.482,0.135-0.938,0.291-1.41c0.478-1.434,1.265-2.934,2.461-4.699c0.627,0.389,1.256,0.771,1.888,1.158l0.405,0.252
				c0.479,0.293,0.955,0.582,1.436,0.871c0.893,0.539,1.818,1.098,2.711,1.672c0.578,0.365,1.25,0.553,2.003,0.553
				c0.026,0.002,0.063,0.002,0.099,0.002c0.735,0,1.519-0.18,2.254-0.518c1.384-0.645,2.414-1.986,2.623-3.43
				c0.062-0.434,0.145-0.879,0.22-1.309c0.038-0.199,0.075-0.398,0.106-0.6c0.01-0.025,0.016-0.049,0.021-0.066v-0.002
				c0.475-1.436,1.268-2.957,2.486-4.76c0.002,0,0.006,0.002,0.008,0.002c0.021,0.012,0.041,0.018,0.06,0.027
				c1.823,0.934,3.578,2.074,5.271,3.182c0.229,0.148,0.455,0.297,0.682,0.443C68.962,66.572,67.254,65.68,65.458,64.98
				L65.458,64.98z M11.194,62.59c-1.986-1.926-3.399-4.211-4.23-6.828C7.83,58.361,9.246,60.646,11.194,62.59L11.194,62.59z
				 M11.466,63.822c-3.212-2.676-5.148-6.166-5.772-10.377c0.711,4.164,2.65,7.641,5.788,10.348l0.025,0.02
				c0.76,0.596,1.536,1.172,2.316,1.732C13.028,64.984,12.239,64.412,11.466,63.822L11.466,63.822z M25.213,72.928
				c1.772,0.836,3.532,1.617,5.224,2.322c1.48,0.625,2.982,0.943,4.459,0.943c2.229,0,4.4-0.715,6.463-2.129l0.135-0.123
				c0.633-0.777,1.001-1.635,1.109-2.559c0.006,0.084,0.01,0.172,0.016,0.26c0.046,1.01-0.234,2.006-1.016,2.939
				c-2.011,1.354-4.102,2.023-6.221,2.023c-1.484,0-2.982-0.33-4.48-0.99c-1.771-0.76-3.559-1.58-5.364-2.449
				c-5.179-2.479-10.022-5.438-14.539-8.793c-3.567-2.869-5.597-6.725-6.042-11.434c-0.067-0.719-0.133-1.432-0.198-2.148
				c0.063,0.625,0.127,1.246,0.192,1.871c0.5,4.771,2.554,8.691,6.105,11.65l0.021,0.018C15.519,67.721,20.272,70.615,25.213,72.928
				L25.213,72.928z M30.214,74.336c1.395,0.57,2.805,0.857,4.191,0.857c2.207,0,4.353-0.721,6.378-2.141l0.145-0.135
				c0.56-0.705,0.915-1.471,1.062-2.287c0.037,1.002-0.241,1.979-0.992,2.904c-1.969,1.346-4.018,2.016-6.102,2.016
				c-1.395,0-2.802-0.299-4.209-0.895c-1.715-0.713-3.449-1.486-5.201-2.312c-0.834-0.387-1.652-0.799-2.469-1.219
				c0.705,0.357,1.416,0.697,2.129,1.025C26.862,72.945,28.569,73.678,30.214,74.336L30.214,74.336z M29.989,73.424
				c1.306,0.51,2.629,0.768,3.929,0.768c2.187,0,4.304-0.723,6.295-2.15l0.151-0.145c0.507-0.648,0.839-1.352,1.005-2.096
				c-0.013,0.926-0.3,1.828-0.981,2.688c-1.921,1.344-3.932,2.014-5.98,2.014c-1.305,0-2.618-0.271-3.938-0.809
				c-1.358-0.541-2.735-1.131-4.124-1.758C27.583,72.473,28.808,72.971,29.989,73.424L29.989,73.424z M33.429,73.191
				c2.168,0,4.26-0.729,6.213-2.162l0.158-0.16c0.449-0.584,0.76-1.213,0.941-1.869c-0.061,0.84-0.352,1.656-0.963,2.439
				c-1.875,1.344-3.848,2.01-5.86,2.01c-1.21,0-2.437-0.24-3.664-0.719c-0.58-0.223-1.167-0.457-1.755-0.697
				c0.426,0.168,0.854,0.324,1.27,0.475C30.985,72.961,32.219,73.191,33.429,73.191L33.429,73.191z M32.937,72.195
				c2.151,0,4.217-0.734,6.135-2.184l0.166-0.168c0.387-0.512,0.672-1.055,0.861-1.621c-0.102,0.74-0.395,1.465-0.927,2.166
				c-1.833,1.348-3.767,2.012-5.743,2.012c-1.119,0-2.253-0.211-3.389-0.633c-0.062-0.023-0.125-0.047-0.186-0.07
				C30.882,72.027,31.919,72.195,32.937,72.195L32.937,72.195z M32.44,71.203c2.14,0,4.178-0.744,6.062-2.209l0.17-0.174
				c0.331-0.453,0.583-0.922,0.771-1.41c-0.129,0.656-0.414,1.305-0.883,1.932c-1.785,1.35-3.682,2.016-5.627,2.016
				c-0.897,0-1.809-0.141-2.723-0.428C30.958,71.107,31.704,71.203,32.44,71.203L32.44,71.203z M31.944,70.209
				c2.125,0,4.144-0.75,5.994-2.23l0.172-0.182c0.254-0.354,0.469-0.721,0.64-1.094c-0.153,0.541-0.412,1.074-0.794,1.59
				c-1.74,1.354-3.6,2.021-5.516,2.021c-0.59,0-1.189-0.072-1.791-0.201C31.085,70.174,31.519,70.209,31.944,70.209L31.944,70.209z
				 M37.624,55.529c0.098-1.041,0.285-2.109,0.576-3.23c0.048,0.121,0.097,0.24,0.146,0.361
				C38.041,53.619,37.8,54.578,37.624,55.529L37.624,55.529z M38.288,57.818c0.076-1.205,0.283-2.445,0.632-3.754
				c0.06,0.15,0.118,0.297,0.179,0.445C38.739,55.617,38.462,56.717,38.288,57.818L38.288,57.818z M38.965,60.07
				c0.042-1.391,0.274-2.826,0.702-4.355c0.081,0.146,0.165,0.285,0.25,0.424C39.467,57.455,39.142,58.76,38.965,60.07L38.965,60.07
				z M39.661,62.195c0-0.041-0.003-0.082-0.003-0.121c0.015-1.615,0.298-3.277,0.866-5.09c0.113,0.141,0.231,0.273,0.354,0.404
				C40.269,58.998,39.844,60.594,39.661,62.195L39.661,62.195z M40.379,64.082c-0.019-0.201-0.026-0.404-0.021-0.604
				c0.054-1.699,0.418-3.459,1.113-5.404c0.041,0.045,0.078,0.088,0.12,0.129c0.099,0.131,0.197,0.252,0.3,0.371
				C41.112,60.426,40.576,62.25,40.379,64.082L40.379,64.082z M41.103,65.9c-0.043-0.34-0.065-0.68-0.047-1.02
				c0.1-1.773,0.545-3.619,1.381-5.686c0.148,0.18,0.303,0.35,0.465,0.516c0.012,0.014,0.025,0.027,0.037,0.045
				C41.978,61.83,41.317,63.854,41.103,65.9L41.103,65.9z M41.815,67.615L41.815,67.615c-0.062-0.451-0.1-0.893-0.062-1.332
				c0.152-1.836,0.696-3.758,1.684-5.949c0.022,0.021,0.043,0.045,0.062,0.066c0.152,0.209,0.32,0.404,0.498,0.594
				C42.86,63.232,42.063,65.408,41.815,67.615L41.815,67.615z M42.563,69.006c-0.021,0.145-0.035,0.295-0.043,0.439
				c-0.071-0.605-0.133-1.182-0.069-1.758c0.215-1.883,0.848-3.846,1.974-6.117c0.208,0.242,0.414,0.484,0.622,0.73
				C43.796,64.576,42.89,66.773,42.563,69.006L42.563,69.006z M45.886,64.031c-1.256,2.16-2.186,4.244-2.576,6.361
				c-0.156,0.848-0.059,1.652-0.053,2.479c0,0.949-0.292,1.879-1.047,2.762c-2.057,1.354-4.188,2.029-6.344,2.029
				c-1.574,0-3.164-0.361-4.749-1.076c-1.827-0.816-3.673-1.686-5.529-2.596c-5.325-2.6-10.347-5.646-15.06-9.062
				c-3.708-2.887-5.792-6.809-6.205-11.645c-0.206-2.402-0.405-4.807-0.606-7.213c0.214,2.309,0.43,4.619,0.647,6.926
				c0.463,4.885,2.57,8.871,6.263,11.846l0.018,0.012c4.633,3.441,9.557,6.422,14.635,8.85c1.826,0.879,3.64,1.707,5.386,2.461
				c1.563,0.688,3.153,1.035,4.717,1.035c2.25,0,4.453-0.711,6.55-2.121l0.125-0.113c0.821-0.984,1.213-2.109,1.154-3.35
				c-0.012-0.252-0.035-0.504-0.053-0.748c-0.049-0.609-0.096-1.189-0.01-1.777c0.265-1.795,0.924-3.672,2.07-5.852
				c0.471,0.508,0.944,1.014,1.422,1.521C46.39,64.518,46.138,64.273,45.886,64.031L45.886,64.031z M46.685,65.838
				c-1.235,2.016-2.177,3.967-2.629,5.941c-0.179,0.793-0.127,1.549-0.162,2.318c-0.039,0.889-0.347,1.758-1.078,2.582
				c-2.098,1.357-4.27,2.035-6.463,2.035c-1.666,0-3.348-0.389-5.021-1.17c-1.881-0.867-3.779-1.775-5.689-2.732
				c-5.474-2.729-10.67-5.857-15.583-9.328c-3.847-2.906-5.991-6.902-6.369-11.854c-0.317-4.158-0.621-8.316-0.929-12.473
				l0.248,2.98c0.258,3.062,0.511,6.129,0.773,9.191c0.425,4.998,2.584,9.045,6.413,12.027l0.014,0.016
				c4.829,3.49,9.921,6.555,15.14,9.104c1.883,0.926,3.748,1.801,5.545,2.604c1.648,0.746,3.321,1.123,4.973,1.123
				c2.275,0,4.51-0.709,6.641-2.117l0.114-0.102c0.786-0.914,1.181-1.963,1.181-3.117c0-0.232-0.012-0.467-0.018-0.693
				c-0.023-0.582-0.041-1.125,0.061-1.684c0.315-1.709,1.008-3.496,2.17-5.58c0.59,0.568,1.18,1.135,1.771,1.705l0.501,0.482
				c0.324,0.312,0.65,0.619,0.977,0.934C48.405,67.301,47.542,66.57,46.685,65.838L46.685,65.838z M53.703,72.762
				c-0.933-0.572-1.87-1.135-2.81-1.707c-0.867-0.533-1.742-1.068-2.613-1.604c-1.195,1.729-2.154,3.408-2.725,5.105
				c-0.229,0.686-0.271,1.332-0.383,1.998c-0.128,0.764-0.466,1.514-1.141,2.225c-2.189,1.369-4.444,2.053-6.713,2.053
				c-1.852,0-3.711-0.453-5.557-1.355c-1.996-0.969-4.005-1.977-6.021-3.02c-5.771-2.971-11.311-6.277-16.619-9.861
				c-4.129-2.943-6.389-7.084-6.697-12.275c-0.273-4.602-0.527-9.201-0.789-13.803c-0.208-3.416-0.43-6.828-0.632-10.244
				c0.133,1.955,0.272,3.904,0.408,5.814c0.105,1.469,0.21,2.939,0.314,4.408c0.09,1.373,0.181,2.752,0.267,4.127
				c0.203,3.076,0.41,6.258,0.618,9.385C2.968,59.227,5.228,63.395,9.33,66.4c5.217,3.602,10.649,6.844,16.159,9.633
				c1.98,1.004,3.953,1.977,5.867,2.881c1.81,0.865,3.654,1.307,5.479,1.307c2.324,0,4.622-0.711,6.825-2.113l0.09-0.076
				c0.71-0.777,1.12-1.67,1.226-2.658c0.018-0.193,0.034-0.391,0.049-0.588c0.035-0.512,0.072-0.994,0.211-1.496
				c0.424-1.525,1.18-3.127,2.363-5.004c0.51,0.371,1.016,0.744,1.521,1.119l0.769,0.562c0.485,0.357,0.979,0.713,1.465,1.066
				C52.131,71.592,52.928,72.174,53.703,72.762L53.703,72.762z M50.149,69.607c-0.889-0.654-1.779-1.311-2.668-1.963
				c-1.217,1.873-2.164,3.688-2.674,5.523c-0.207,0.738-0.201,1.441-0.277,2.16c-0.08,0.822-0.404,1.633-1.105,2.402
				c-2.146,1.363-4.355,2.041-6.588,2.041c-1.761,0-3.527-0.42-5.29-1.266c-1.937-0.916-3.894-1.877-5.856-2.873
				c-5.621-2.846-10.988-6.066-16.1-9.592c-3.987-2.926-6.189-6.992-6.532-12.064c-0.307-4.504-0.592-9.008-0.886-13.512
				c-0.106-1.498-0.216-2.998-0.323-4.496c0.004,0.053,0.01,0.109,0.015,0.164c0.117,1.439,0.234,2.881,0.348,4.32
				c0.097,1.297,0.192,2.598,0.289,3.895c0.226,3.057,0.46,6.215,0.696,9.324c0.39,5.107,2.599,9.213,6.562,12.209l0.015,0.01
				c5.019,3.545,10.283,6.695,15.644,9.363c1.928,0.967,3.848,1.889,5.707,2.74c1.729,0.809,3.486,1.217,5.227,1.217
				c2.299,0,4.563-0.709,6.733-2.117l0.103-0.084c0.746-0.848,1.151-1.818,1.201-2.889c0.008-0.215,0.014-0.428,0.014-0.641
				c0.013-0.547,0.019-1.064,0.14-1.592c0.368-1.619,1.092-3.312,2.265-5.299c0.492,0.422,0.987,0.846,1.479,1.264l0.802,0.68
				c0.495,0.426,0.996,0.846,1.497,1.266c0.349,0.295,0.704,0.594,1.058,0.893C51.144,70.332,50.646,69.971,50.149,69.607
				L50.149,69.607z M31.444,69.225c2.119,0,4.115-0.766,5.93-2.27l0.172-0.186c0.186-0.256,0.346-0.521,0.484-0.789
				c-0.156,0.426-0.381,0.85-0.682,1.264c-1.695,1.361-3.52,2.027-5.404,2.027c-0.325,0-0.654-0.029-0.984-0.068
				C31.124,69.213,31.283,69.225,31.444,69.225L31.444,69.225z M36.976,53.191c0.11-0.867,0.272-1.752,0.506-2.67
				c0.037,0.092,0.076,0.188,0.115,0.283C37.349,51.604,37.142,52.396,36.976,53.191L36.976,53.191z M36.812,65.932l0.17-0.188
				c0.095-0.129,0.181-0.266,0.265-0.398c-0.138,0.287-0.304,0.572-0.504,0.852c-1.65,1.367-3.439,2.039-5.298,2.039
				c-0.037,0-0.073-0.004-0.109-0.006C33.306,68.135,35.146,67.369,36.812,65.932L36.812,65.932z M36.356,50.746
				c0.103-0.654,0.237-1.322,0.406-2.006c0.028,0.066,0.057,0.137,0.081,0.199C36.661,49.545,36.496,50.15,36.356,50.746
				L36.356,50.746z M35.771,48.219c0.08-0.42,0.174-0.844,0.274-1.268c0.019,0.037,0.031,0.078,0.049,0.117
				C35.978,47.453,35.869,47.838,35.771,48.219L35.771,48.219z M36.253,64.91l0.131-0.146c-0.076,0.129-0.158,0.258-0.248,0.387
				c-1.352,1.16-2.812,1.812-4.334,1.994C33.399,66.875,34.892,66.127,36.253,64.91L36.253,64.91z M35.222,45.602
				c0.031-0.146,0.067-0.299,0.104-0.449c0.003,0.012,0.007,0.023,0.013,0.039C35.299,45.326,35.259,45.465,35.222,45.602
				L35.222,45.602z M35.635,63.936c-0.036,0.055-0.069,0.109-0.106,0.164c-0.991,0.887-2.051,1.482-3.157,1.801
				C33.533,65.521,34.626,64.865,35.635,63.936L35.635,63.936z M60.241,11.68c-0.93,0.214-1.885,0.452-3.063,0.76l-0.741-0.801
				c-1.477-1.581-3.002-3.218-4.514-4.821c-0.199-0.21-0.426-0.433-0.681-0.657c-0.862-0.819-1.864-1.472-2.974-1.942
				c-0.473-0.21-0.979-0.388-1.492-0.524c-1-0.278-1.944-0.421-2.797-0.421c-0.155,0-0.307,0.004-0.457,0.015
				c-1.018-0.229-2.025-0.343-2.998-0.343c-1.405,0-2.799,0.242-4.148,0.72c-2.201,0.783-4.309,2.096-6.432,4.013
				c-0.017,0.013-0.032,0.028-0.049,0.041c-0.65,0.08-1.311,0.158-1.961,0.233c-0.832,0.097-1.666,0.2-2.496,0.302
				c-1.631,0.203-3.317,0.411-4.988,0.578c-1.59,0.157-3.227,0.482-4.883,0.961c1.767-0.567,3.418-0.948,4.92-1.186
				c2.588-0.407,5.133-0.895,7.699-1.344c0.725-0.127,1.455-0.254,2.178-0.384c0.057-0.046,0.109-0.094,0.166-0.142
				c2.146-1.844,4.285-3.083,6.476-3.764c1.157-0.36,2.349-0.547,3.585-0.547c1.126,0,2.288,0.155,3.5,0.479
				c0.032-0.001,0.069-0.001,0.104-0.001c0.916,0,1.929,0.177,3.006,0.501c0.464,0.133,0.93,0.303,1.39,0.516
				c1.034,0.449,1.97,1.054,2.794,1.808c0.235,0.2,0.455,0.402,0.66,0.608c1.848,1.862,3.682,3.733,5.514,5.601
				c1.133-0.188,2.229-0.359,3.391-0.519c0.912-0.127,1.898-0.215,3.003-0.215c0.087,0,0.18,0.004,0.266,0.004
				C62.864,11.224,61.591,11.372,60.241,11.68L60.241,11.68z M56.644,13.41l-0.658-0.743c-1.471-1.657-2.987-3.373-4.5-5.051
				c-0.195-0.223-0.422-0.449-0.684-0.688c-0.867-0.857-1.891-1.532-3.033-2.002c-0.49-0.214-1.011-0.386-1.535-0.511
				c-0.895-0.229-1.739-0.348-2.514-0.348c-0.283,0-0.562,0.016-0.824,0.048c-0.828-0.153-1.646-0.229-2.438-0.229
				c-1.584,0-3.082,0.292-4.579,0.896c-2.139,0.861-4.177,2.227-6.232,4.172c-0.004,0.004-0.008,0.007-0.015,0.013
				c-0.618,0.038-1.243,0.074-1.86,0.11c-0.813,0.045-1.625,0.097-2.437,0.148c-1.583,0.101-3.224,0.207-4.845,0.268
				c-1.104,0.039-2.235,0.177-3.396,0.405c1.211-0.285,2.35-0.472,3.404-0.578c2.52-0.249,4.997-0.587,7.496-0.878
				c0.703-0.084,1.414-0.168,2.121-0.253c0.053-0.048,0.104-0.097,0.16-0.145c2.076-1.874,4.146-3.159,6.269-3.913
				c1.272-0.455,2.593-0.694,3.981-0.694c0.951,0,1.937,0.112,2.957,0.348c0.164-0.013,0.33-0.018,0.498-0.018
				c0.822,0,1.721,0.139,2.67,0.406c0.479,0.124,0.953,0.288,1.426,0.5c1.054,0.448,2.003,1.066,2.83,1.852
				c0.232,0.207,0.453,0.42,0.654,0.633c1.83,1.937,3.644,3.887,5.459,5.834c1.114-0.294,2.186-0.567,3.332-0.83
				c0.018-0.004,0.037-0.007,0.053-0.013c-0.268,0.074-0.539,0.15-0.816,0.24C58.538,12.729,57.56,13.077,56.644,13.41L56.644,13.41
				z M55.704,13.9c-1.521-1.799-3.09-3.661-4.65-5.485c-0.199-0.229-0.428-0.472-0.686-0.717c-0.881-0.897-1.924-1.591-3.104-2.066
				c-0.498-0.213-1.037-0.382-1.582-0.501C44.89,4.944,44.122,4.85,43.424,4.85c-0.405,0-0.796,0.03-1.164,0.094
				c-0.634-0.09-1.264-0.136-1.875-0.136c-1.747,0-3.386,0.359-5.016,1.098c-2.04,0.928-4.005,2.338-6.002,4.308
				c-0.587-0.001-1.177-0.003-1.759-0.009c-0.601-0.004-1.196-0.004-1.795-0.004h-0.572h-0.575c-1.313,0-2.72-0.003-4.133-0.041
				c-0.146-0.007-0.296-0.009-0.447-0.009c-0.604,0.001-1.224,0.039-1.854,0.103c0.801-0.119,1.561-0.191,2.274-0.216
				c2.448-0.093,4.863-0.279,7.291-0.418c0.688-0.039,1.376-0.08,2.065-0.12c0.052-0.051,0.103-0.1,0.152-0.149
				c2.008-1.898,4.004-3.234,6.062-4.062c1.385-0.557,2.83-0.858,4.377-0.858c0.783,0,1.585,0.077,2.422,0.235
				c0.27-0.035,0.553-0.052,0.842-0.052c0.739,0,1.541,0.113,2.387,0.33c0.486,0.116,0.971,0.275,1.453,0.486
				c1.077,0.443,2.045,1.076,2.869,1.894c0.231,0.214,0.455,0.435,0.651,0.657c1.812,2.015,3.606,4.045,5.399,6.066
				c0.526-0.19,1.045-0.379,1.565-0.562c-0.677,0.3-1.334,0.604-1.944,0.891L55.704,13.9z M55.16,14.828
				c-1.482-1.843-3.015-3.749-4.537-5.613c-0.2-0.242-0.433-0.494-0.695-0.749c-0.883-0.937-1.944-1.652-3.161-2.124
				c-0.523-0.22-1.076-0.387-1.634-0.494c-0.706-0.153-1.396-0.23-2.032-0.23c-0.521,0-1.02,0.052-1.475,0.155
				c-0.443-0.042-0.885-0.066-1.312-0.066c-1.916,0-3.697,0.433-5.449,1.323c-1.959,0.996-3.846,2.442-5.76,4.427
				c-0.549-0.041-1.1-0.08-1.646-0.122c-0.769-0.055-1.533-0.105-2.302-0.158c-1.494-0.101-3.041-0.204-4.568-0.352
				c-0.41-0.039-0.836-0.058-1.268-0.061c0.261-0.013,0.517-0.02,0.765-0.02c0.146,0,0.288,0.003,0.431,0.006
				c1.393,0.039,2.771,0.045,4.149,0.045c0.384,0,0.769-0.001,1.149-0.001c0.595,0,1.19,0.001,1.789,0.004
				c0.666,0.005,1.34,0.007,2.006,0.01c0.052-0.05,0.101-0.101,0.152-0.15c1.938-1.919,3.862-3.308,5.854-4.213
				c1.488-0.676,3.059-1.045,4.77-1.045c0.611,0,1.238,0.048,1.887,0.145c0.362-0.069,0.748-0.103,1.152-0.103
				c0.666,0,1.385,0.092,2.131,0.268c0.498,0.109,0.993,0.264,1.488,0.474c1.104,0.441,2.079,1.09,2.907,1.936
				c0.231,0.223,0.454,0.45,0.651,0.683c1.791,2.092,3.563,4.198,5.338,6.301c0.01-0.002,0.016-0.006,0.023-0.012
				c-0.136,0.078-0.27,0.156-0.404,0.232L55.16,14.828z M28.586,13.92c-0.469-0.104-0.938-0.207-1.401-0.31
				c-0.727-0.162-1.449-0.315-2.172-0.472c-1.265-0.271-2.563-0.552-3.852-0.858c2.025,0.324,4.035,0.581,6.055,0.875
				c0.605,0.09,1.217,0.175,1.823,0.259C28.89,13.583,28.737,13.748,28.586,13.92L28.586,13.92z M28.33,15.137
				c-0.425-0.127-0.851-0.25-1.271-0.379c-0.703-0.215-1.401-0.421-2.102-0.626c-0.98-0.291-1.986-0.59-2.99-0.9
				c1.688,0.386,3.37,0.729,5.055,1.104c0.558,0.125,1.119,0.246,1.683,0.367C28.581,14.846,28.456,14.988,28.33,15.137
				L28.33,15.137z M26.938,15.91c-0.676-0.266-1.354-0.525-2.031-0.781c-0.709-0.271-1.43-0.547-2.154-0.832
				c1.359,0.41,2.719,0.806,4.077,1.214c0.514,0.16,1.032,0.312,1.549,0.467c-0.099,0.123-0.2,0.242-0.301,0.369
				C27.696,16.203,27.315,16.055,26.938,15.91L26.938,15.91z M26.829,17.07c-0.66-0.318-1.316-0.631-1.977-0.943
				c-0.418-0.199-0.845-0.404-1.271-0.607c1.018,0.393,2.033,0.777,3.052,1.174c0.474,0.186,0.951,0.365,1.429,0.549
				c-0.08,0.102-0.156,0.199-0.236,0.307C27.492,17.389,27.157,17.23,26.829,17.07L26.829,17.07z M26.719,18.238
				c-0.64-0.373-1.278-0.74-1.917-1.107c-0.143-0.082-0.292-0.166-0.436-0.25c0.689,0.328,1.383,0.656,2.072,0.99
				c0.434,0.209,0.873,0.416,1.311,0.623c-0.055,0.082-0.111,0.158-0.17,0.238C27.289,18.57,27.003,18.404,26.719,18.238
				L26.719,18.238z M26.612,19.414c-0.479-0.328-0.957-0.654-1.437-0.982c0.356,0.207,0.714,0.41,1.068,0.617
				c0.396,0.232,0.8,0.461,1.2,0.689c-0.037,0.057-0.075,0.109-0.114,0.166C27.091,19.742,26.853,19.58,26.612,19.414L26.612,19.414
				z M26.842,22.188c0,0.002-0.001,0.004-0.001,0.004c-0.012-0.012-0.025-0.023-0.041-0.035
				C26.813,22.166,26.829,22.176,26.842,22.188L26.842,22.188z M26.508,20.598c-0.164-0.135-0.333-0.266-0.498-0.398
				c0.015,0.01,0.027,0.02,0.042,0.027c0.358,0.25,0.725,0.494,1.09,0.74c-0.019,0.031-0.039,0.061-0.057,0.09
				C26.894,20.908,26.698,20.752,26.508,20.598L26.508,20.598z M33.996,9.202c0.231-0.146,0.462-0.308,0.696-0.441
				c1.67-0.948,3.485-1.484,5.547-1.484c0.203,0,0.412,0.01,0.621,0.021c-0.18,0.042-0.354,0.086-0.524,0.145
				c-0.06,0-0.112-0.003-0.171-0.003C37.942,7.439,35.926,8.025,33.996,9.202L33.996,9.202z M39.053,9.11
				c-0.006,0.003-0.015,0.003-0.021,0.005c-0.141,0.012-0.277,0.032-0.42,0.048C38.758,9.144,38.903,9.122,39.053,9.11L39.053,9.11z
				 M35.949,9.024c1.228-0.516,2.552-0.811,4.013-0.838c-0.091,0.03-0.188,0.058-0.273,0.093C38.372,8.319,37.135,8.57,35.949,9.024
				L35.949,9.024z M50.188,10.017c-0.203-0.253-0.432-0.517-0.691-0.78c-0.895-0.978-1.982-1.713-3.23-2.189
				c-0.541-0.22-1.108-0.382-1.683-0.482c-0.631-0.123-1.251-0.187-1.831-0.187c-0.632,0-1.229,0.075-1.768,0.227
				c-0.252-0.013-0.502-0.021-0.744-0.021c-2.094,0-4.021,0.516-5.891,1.572c-1.883,1.067-3.686,2.551-5.508,4.534
				c-0.508-0.073-1.02-0.146-1.525-0.22c-0.748-0.108-1.492-0.211-2.236-0.313c-1.45-0.202-2.952-0.411-4.428-0.66
				c-0.104-0.018-0.211-0.031-0.317-0.046c0.063,0.006,0.13,0.009,0.192,0.016c2.308,0.22,4.586,0.339,6.884,0.511
				c0.646,0.049,1.301,0.096,1.95,0.139c0.047-0.051,0.098-0.104,0.143-0.154c1.872-1.946,3.727-3.382,5.652-4.362
				c1.58-0.805,3.275-1.252,5.156-1.252c0.439,0,0.892,0.024,1.353,0.075c0.446-0.111,0.929-0.164,1.437-0.164
				c0.603,0,1.238,0.075,1.91,0.217c0.504,0.1,1.014,0.249,1.518,0.458c1.13,0.439,2.117,1.101,2.941,1.979
				c0.237,0.23,0.457,0.466,0.651,0.707c1.746,2.137,3.472,4.285,5.2,6.433c-0.102,0.07-0.206,0.141-0.311,0.213l-0.264-0.346
				C53.261,13.984,51.72,11.982,50.188,10.017L50.188,10.017z M49.757,10.82c-0.193-0.261-0.432-0.536-0.697-0.812
				c-0.899-1.021-2.01-1.778-3.295-2.254c-0.559-0.22-1.139-0.378-1.729-0.469c-0.57-0.103-1.127-0.153-1.646-0.153
				c-0.285,0-0.557,0.021-0.826,0.05c0.379-0.072,0.772-0.111,1.188-0.111c0.546,0,1.119,0.061,1.71,0.177
				c0.521,0.091,1.036,0.234,1.553,0.443c1.148,0.439,2.15,1.115,2.98,2.022c0.234,0.237,0.451,0.482,0.646,0.729
				c1.701,2.18,3.381,4.375,5.062,6.564c-0.078,0.062-0.156,0.129-0.243,0.195l-0.168-0.23
				C52.813,14.951,51.283,12.864,49.757,10.82L49.757,10.82z M49.325,11.626c-0.196-0.274-0.428-0.559-0.697-0.846
				c-0.912-1.06-2.044-1.84-3.367-2.318c-0.572-0.224-1.173-0.377-1.777-0.461c-0.476-0.074-0.94-0.11-1.383-0.116
				c0.098-0.004,0.19-0.011,0.289-0.011c0.485,0,1,0.049,1.527,0.143c0.527,0.081,1.055,0.222,1.581,0.432
				c1.173,0.433,2.188,1.123,3.017,2.063c0.237,0.245,0.459,0.498,0.648,0.752c1.656,2.222,3.295,4.455,4.934,6.689
				c-0.061,0.057-0.121,0.111-0.185,0.17L53.84,18.02C52.366,15.92,50.843,13.75,49.325,11.626L49.325,11.626z M47.287,11.796
				c-0.712-0.732-1.54-1.306-2.484-1.708C45.753,10.473,46.587,11.045,47.287,11.796L47.287,11.796z M48.897,12.433
				c-0.197-0.287-0.433-0.583-0.701-0.88c-0.924-1.104-2.079-1.906-3.442-2.386C44.3,8.995,43.83,8.866,43.353,8.782
				c0.006,0.001,0.012,0.001,0.016,0.002c0.537,0.071,1.076,0.207,1.615,0.417c1.195,0.43,2.224,1.135,3.055,2.105
				c0.236,0.253,0.458,0.514,0.646,0.779c1.578,2.208,3.133,4.427,4.689,6.646c-0.046,0.035-0.1,0.068-0.145,0.104
				C51.81,16.727,50.351,14.561,48.897,12.433L48.897,12.433z M51.717,19.887c-0.009,0.008-0.022,0.014-0.03,0.021
				c-0.375-0.605-0.756-1.219-1.133-1.83C50.94,18.68,51.329,19.283,51.717,19.887L51.717,19.887z M49.375,14.633
				c1.06,1.559,2.11,3.119,3.161,4.682c-0.025,0.021-0.061,0.041-0.09,0.062C51.438,17.807,50.405,16.217,49.375,14.633
				L49.375,14.633z M80.245,28.947l-0.125-1.633c-0.383-5.1-2.617-9.238-7.029-13.035c-0.104-0.086-0.206-0.178-0.312-0.266
				c-0.573-0.502-1.223-1.067-1.922-1.5c-1.616-1.006-3.371-1.563-5.359-1.701c-0.52-0.038-1.039-0.055-1.546-0.055
				c-1.005,0-2.007,0.073-3.062,0.22c-1.048,0.144-2.063,0.3-3.176,0.484l-0.953-0.972c-1.441-1.468-2.927-2.983-4.402-4.469
				c-0.203-0.204-0.433-0.416-0.685-0.633c-0.843-0.773-1.827-1.409-2.903-1.877c-0.461-0.208-0.949-0.391-1.444-0.534
				c-1.138-0.343-2.192-0.519-3.13-0.519h-0.047c-1.211-0.317-2.405-0.479-3.558-0.479c-1.254,0-2.503,0.191-3.718,0.569
				C34.606,3.253,32.44,4.51,30.239,6.4c-0.025,0.021-0.049,0.042-0.075,0.063c-0.683,0.122-1.371,0.242-2.054,0.36
				c-0.857,0.15-1.707,0.303-2.562,0.458c-1.678,0.303-3.41,0.615-5.13,0.886c-2.194,0.346-4.435,0.949-6.661,1.788
				c2.428-0.974,4.689-1.628,6.723-2.062c2.651-0.567,5.268-1.207,7.901-1.81c0.743-0.168,1.488-0.339,2.234-0.512
				c0.058-0.048,0.112-0.093,0.171-0.141c2.227-1.808,4.427-3.01,6.683-3.613c1.039-0.278,2.099-0.423,3.188-0.423
				c1.299,0,2.64,0.207,4.037,0.633c0.936,0.043,1.964,0.256,3.053,0.609c0.454,0.143,0.906,0.317,1.357,0.528
				c1.008,0.455,1.935,1.042,2.756,1.765c0.231,0.194,0.457,0.39,0.664,0.586c1.86,1.782,3.717,3.577,5.569,5.368
				c1.149-0.083,2.267-0.149,3.448-0.208c0.473-0.026,0.961-0.041,1.471-0.041c0.928,0,1.93,0.049,3.031,0.178
				c1.668,0.195,3.376,0.689,5.05,1.723c0.778,0.478,1.497,1.113,2.166,1.667c4.154,3.422,6.669,7.479,7.029,12.901
				c0.433,6.541,0.866,13.084,1.282,19.625C81.14,40.76,80.688,34.783,80.245,28.947L80.245,28.947z M79.825,30.678l-0.268-3.127
				c-0.423-4.955-2.611-9.051-6.891-12.883c-0.087-0.082-0.174-0.16-0.268-0.24c-0.59-0.536-1.262-1.144-1.991-1.598
				c-0.796-0.497-1.621-0.875-2.489-1.142c0.902,0.261,1.807,0.648,2.704,1.205c0.787,0.487,1.508,1.149,2.177,1.723
				c3.993,3.434,6.475,7.416,6.881,12.73c0.353,4.701,0.711,9.404,1.059,14.104C80.437,37.834,80.129,34.229,79.825,30.678
				L79.825,30.678z M78.997,27.789c-0.457-4.812-2.604-8.861-6.752-12.734l-0.217-0.207c-0.608-0.571-1.301-1.22-2.067-1.7
				c-0.159-0.1-0.321-0.191-0.483-0.283c0.224,0.118,0.445,0.246,0.668,0.386c0.804,0.5,1.526,1.188,2.192,1.785
				c3.836,3.436,6.286,7.352,6.729,12.561c0.252,2.932,0.498,5.863,0.746,8.795c-0.145-1.562-0.295-3.119-0.442-4.664L78.997,27.789
				z M72.983,67.893c0.74,0,1.49-0.172,2.227-0.504l0.029-0.014c2.125-1.156,3.787-2.686,4.951-4.504
				c-1.152,1.842-2.807,3.389-4.945,4.564c-0.71,0.326-1.419,0.477-2.07,0.477c-0.158,0-0.314-0.014-0.467-0.029
				C72.801,67.889,72.894,67.893,72.983,67.893L72.983,67.893z M72.151,16.613c3.021,3.137,5.067,6.613,5.636,11.041
				C77.196,23.662,75.39,20.115,72.151,16.613L72.151,16.613z M75.905,66.465c-0.284,0.184-0.579,0.354-0.881,0.52
				c-0.354,0.162-0.707,0.277-1.058,0.355c0.351-0.084,0.698-0.201,1.039-0.354l0.032-0.02
				C75.337,66.811,75.627,66.643,75.905,66.465L75.905,66.465z M74.081,20.033c0.781,1.146,1.441,2.348,1.963,3.631
				C75.537,22.43,74.886,21.229,74.081,20.033L74.081,20.033z M13.332,9.655c2.56-1.106,4.96-1.896,7.138-2.478
				c2.723-0.726,5.402-1.513,8.105-2.269c0.763-0.216,1.527-0.432,2.291-0.646c0.057-0.046,0.117-0.092,0.174-0.137
				c2.293-1.791,4.57-2.936,6.893-3.463c0.914-0.21,1.842-0.317,2.789-0.317c1.477,0,2.998,0.259,4.579,0.802
				c0.927,0.1,1.935,0.348,2.994,0.721C48.737,2.02,49.181,2.2,49.624,2.41c0.98,0.456,1.895,1.032,2.719,1.725
				c0.227,0.184,0.451,0.37,0.66,0.56c1.889,1.706,3.758,3.421,5.631,5.135c1.167,0.021,2.312,0.058,3.508,0.1
				c1.342,0.045,2.803,0.156,4.486,0.438c1.633,0.271,3.305,0.804,4.941,1.808c0.769,0.469,1.482,1.077,2.154,1.608
				c4.317,3.414,6.871,7.541,7.178,13.072c0.498,8.393,0.961,16.785,1.401,25.176c-0.516-8.312-1.071-16.711-1.612-24.867
				l-0.006-0.09c-0.351-5.244-2.627-9.432-7.172-13.178c-0.113-0.095-0.229-0.191-0.348-0.29c-0.588-0.491-1.193-0.997-1.864-1.408
				c-1.569-0.969-3.272-1.551-5.209-1.778c-1.036-0.122-2.041-0.181-3.077-0.181c-0.48,0-0.971,0.015-1.488,0.039
				c-1.192,0.061-2.24,0.125-3.283,0.198l-0.973-0.938c-1.465-1.416-2.977-2.875-4.474-4.307c-0.205-0.195-0.435-0.398-0.681-0.605
				c-0.84-0.735-1.801-1.351-2.85-1.821c-0.445-0.208-0.918-0.393-1.4-0.544c-1.123-0.366-2.166-0.578-3.102-0.624
				C43.369,1.214,41.989,1,40.658,1c-1.104,0-2.212,0.145-3.294,0.436c-2.295,0.615-4.529,1.823-6.828,3.688
				c-0.034,0.028-0.068,0.057-0.102,0.083c-0.713,0.166-1.43,0.331-2.144,0.49c-0.875,0.202-1.75,0.409-2.624,0.613
				c-1.723,0.404-3.504,0.819-5.271,1.196c-2.396,0.512-4.799,1.261-7.138,2.224c-0.862,0.357-1.692,0.745-2.496,1.156
				C11.604,10.443,12.462,10.033,13.332,9.655L13.332,9.655z M81.247,26.838c-0.296-5.312-2.689-9.672-7.309-13.324
				c-0.125-0.102-0.254-0.203-0.386-0.305c-0.569-0.46-1.163-0.935-1.801-1.326c-1.524-0.934-3.185-1.542-5.065-1.857
				c-1.473-0.245-2.908-0.385-4.531-0.441c-1.068-0.038-2.221-0.075-3.385-0.098l-1.121-1.025c-1.443-1.322-2.938-2.685-4.414-4.023
				c-0.203-0.184-0.433-0.378-0.678-0.576c-0.834-0.701-1.774-1.297-2.789-1.766c-0.438-0.208-0.895-0.396-1.359-0.556
				c-1.09-0.382-2.111-0.629-3.029-0.732C43.803,0.27,42.233,0,40.724,0c-0.959,0-1.925,0.108-2.869,0.324
				c-2.385,0.543-4.683,1.698-7.025,3.528c-0.039,0.034-0.081,0.064-0.12,0.097c-0.744,0.208-1.487,0.418-2.228,0.625
				c-0.904,0.253-1.807,0.51-2.709,0.766c-1.763,0.502-3.586,1.022-5.393,1.504c-2.455,0.654-4.873,1.494-7.186,2.493
				c-2.58,1.122-4.924,2.462-6.968,3.982c-2.96,2.009-4.872,4.609-5.682,7.732c-0.437,1.682-0.611,3.502-0.521,5.418
				c0.146,3.182,0.321,6.412,0.488,9.539c0.084,1.525,0.167,3.051,0.246,4.576c0.072,1.479,0.144,2.959,0.213,4.436
				c0.15,3.168,0.307,6.441,0.479,9.666c0.272,5.426,2.63,9.717,7.008,12.75c5.595,3.703,11.371,7.115,17.177,10.15
				c2.083,1.088,4.166,2.154,6.191,3.162c1.971,0.984,3.98,1.488,5.976,1.488c2.38,0,4.74-0.713,7.019-2.113l0.063-0.053
				c0.646-0.652,1.062-1.373,1.261-2.207c0.041-0.156,0.071-0.314,0.109-0.469c0.102-0.451,0.193-0.881,0.373-1.32
				c0.533-1.332,1.35-2.729,2.561-4.383c0.762,0.371,1.522,0.746,2.28,1.113l0.019,0.01c0.469,0.23,0.938,0.451,1.406,0.678
				c0.875,0.416,1.778,0.852,2.658,1.303c0.504,0.254,1.071,0.389,1.696,0.389c0.06,0,0.116,0,0.18-0.004
				c0.712-0.014,1.472-0.195,2.187-0.531c1.283-0.605,2.262-1.805,2.557-3.127c0.087-0.396,0.191-0.803,0.293-1.189
				c0.049-0.191,0.096-0.381,0.143-0.568c0.012-0.025,0.018-0.049,0.022-0.066l0.006-0.002c0.526-1.334,1.349-2.748,2.577-4.438
				c0.021,0.01,0.043,0.02,0.066,0.023c0.018,0.006,0.037,0.012,0.055,0.021c1.795,0.697,3.538,1.611,5.225,2.492
				c0.34,0.18,0.682,0.355,1.021,0.533c0.507,0.264,1.114,0.398,1.764,0.398c0.75,0,1.534-0.184,2.275-0.531l0.018-0.01
				c4.937-2.732,7.484-7.396,7.175-13.135C82.333,45.779,81.812,36.287,81.247,26.838L81.247,26.838z"/>
		</g>
	</g>
</g>
</svg>
