<?xml version="1.0" encoding="UTF-8" standalone="no"?>
<svg width="16px" height="16px" viewBox="0 0 16 16" version="1.1" xmlns="http://www.w3.org/2000/svg" xmlns:xlink="http://www.w3.org/1999/xlink" xmlns:sketch="http://www.bohemiancoding.com/sketch/ns">
    <!-- Generator: Sketch 3.5.2 (25235) - http://www.bohemiancoding.com/sketch -->
    <title>Instagram Copy 2</title>
    <desc>Created with Sketch.</desc>
    <defs></defs>
    <g id="Page-1" stroke="none" stroke-width="1" fill="none" fill-rule="evenodd" sketch:type="MSPage">
        <g id="Desktop_one_page" sketch:type="MSArtboardGroup" transform="translate(-746.000000, -4064.000000)" fill="#50E3C2">
            <path d="M758.834993,4071.98822 C758.834993,4074.6561 756.669259,4076.8183 753.998689,4076.8183 C751.327375,4076.8183 749.162385,4074.6561 749.162385,4071.98822 C749.162385,4071.67036 749.194007,4071.35993 749.252415,4071.05935 L746.000186,4071.05935 L746.000186,4077.48002 C746.000186,4078.85883 747.118488,4079.97643 748.499811,4079.97643 L759.497753,4079.97643 C760.877588,4079.97643 761.997378,4078.85883 761.997378,4077.48002 L761.997378,4071.05935 L758.744778,4071.05935 C758.803371,4071.35993 758.834993,4071.67036 758.834993,4071.98822 L758.834993,4071.98822 Z M759.497567,4064 L748.499625,4064 C747.118302,4064 746,4065.11798 746,4066.49641 L746,4069.20163 L750.049103,4069.20163 C750.925032,4067.96569 752.366994,4067.15813 753.998503,4067.15813 C755.629826,4067.15813 757.071602,4067.96569 757.947345,4069.20163 L761.997006,4069.20163 L761.997006,4066.49641 C761.997192,4065.11779 760.877402,4064 759.497567,4064 L759.497567,4064 Z M760.719478,4067.08364 C760.719478,4067.32904 760.518957,4067.52949 760.273422,4067.52949 L758.933951,4067.52949 C758.688788,4067.52949 758.487523,4067.32904 758.487523,4067.08364 L758.487523,4065.74626 C758.487523,4065.50086 758.688788,4065.30041 758.933951,4065.30041 L760.273422,4065.30041 C760.518957,4065.30041 760.719478,4065.50086 760.719478,4065.74626 L760.719478,4067.08364 L760.719478,4067.08364 Z M756.974876,4071.98822 C756.974876,4070.34655 755.642288,4069.01586 753.998689,4069.01586 C752.354718,4069.01586 751.022502,4070.34655 751.022502,4071.98822 C751.022502,4073.62989 752.354718,4074.96058 753.998689,4074.96058 C755.642288,4074.96058 756.974876,4073.62989 756.974876,4071.98822 L756.974876,4071.98822 Z" id="Instagram-Copy-2" sketch:type="MSShapeGroup"></path>
        </g>
    </g>
</svg>