<?xml version="1.0" encoding="UTF-8" standalone="no"?>
<svg width="25px" height="16px" viewBox="0 0 25 16" version="1.1" xmlns="http://www.w3.org/2000/svg" xmlns:xlink="http://www.w3.org/1999/xlink" xmlns:sketch="http://www.bohemiancoding.com/sketch/ns">
    <!-- Generator: Sketch 3.5.2 (25235) - http://www.bohemiancoding.com/sketch -->
    <title>Group 3</title>
    <desc>Created with Sketch.</desc>
    <defs></defs>
    <g id="Page-1" stroke="none" stroke-width="1" fill="none" fill-rule="evenodd" sketch:type="MSPage">
        <g id="Tablet_ONEpage" sketch:type="MSArtboardGroup" transform="translate(-338.000000, -4751.000000)" fill="#0000FD">
            <g id="Group-3" sketch:type="MSLayerGroup" transform="translate(338.000000, 4751.000000)">
                <path d="M9.79667697,7.15351189 C9.79667697,7.15351189 12.0932245,6.97557107 12.0932245,4.17191223 C12.0932245,1.36801097 10.2144297,0 7.83340921,0 L-1.10134124e-13,0 L-1.10134124e-13,15.6687317 L7.83340921,15.6687317 C7.83340921,15.6687317 12.6155974,15.825339 12.6155974,11.0437249 C12.6155974,11.0437249 12.8243524,7.15351189 9.79667697,7.15351189 L9.79667697,7.15351189 Z M3.45222478,2.7847496 L7.83340921,2.7847496 C7.83340921,2.7847496 8.89830234,2.7847496 8.89830234,4.41506569 C8.89830234,6.04538179 8.27252288,6.2815049 7.561785,6.2815049 L3.45222478,6.2815049 L3.45222478,2.7847496 L3.45222478,2.7847496 Z M7.61227458,12.8837396 L3.45222478,12.8837396 L3.45222478,8.69679699 L7.83340921,8.69679699 C7.83340921,8.69679699 9.42067527,8.67497863 9.42067527,10.8483294 C9.42067527,12.6805865 8.23514118,12.8696789 7.61227458,12.8837396 L7.61227458,12.8837396 Z M18.9937902,3.9864562 C13.2044806,3.9864562 13.2093354,10.0058984 13.2093354,10.0058984 C13.2093354,10.0058984 12.8124582,15.9955222 18.9937902,15.9955222 C18.9937902,15.9955222 24.1444552,16.3026761 24.1444552,11.8291857 L21.4961798,11.8291857 C21.4961798,11.8291857 21.5838084,13.5138053 19.082147,13.5138053 C19.082147,13.5138053 16.4329007,13.698534 16.4329007,10.7879653 L24.2332975,10.7879653 C24.2330547,10.7882077 25.0867655,3.9864562 18.9937902,3.9864562 L18.9937902,3.9864562 Z M21.3481095,8.69679699 L16.4032866,8.69679699 C16.4032866,8.69679699 16.7266141,6.2815049 19.0520474,6.2815049 C21.3769953,6.2815049 21.3481095,8.69679699 21.3481095,8.69679699 L21.3481095,8.69679699 Z M21.9653931,0.922431637 L15.7551752,0.922431637 L15.7551752,2.85287135 L21.9653931,2.85287135 L21.9653931,0.922431637 L21.9653931,0.922431637 Z" id="Behance" sketch:type="MSShapeGroup"></path>
            </g>
        </g>
    </g>
</svg>