<?xml version="1.0" encoding="UTF-8" standalone="no"?>
<svg width="25px" height="16px" viewBox="0 0 25 16" version="1.1" xmlns="http://www.w3.org/2000/svg" xmlns:xlink="http://www.w3.org/1999/xlink" xmlns:sketch="http://www.bohemiancoding.com/sketch/ns">
    <!-- Generator: Sketch 3.5.2 (25235) - http://www.bohemiancoding.com/sketch -->
    <title>Group 4</title>
    <desc>Created with Sketch.</desc>
    <defs></defs>
    <g id="Page-1" stroke="none" stroke-width="1" fill="none" fill-rule="evenodd" sketch:type="MSPage">
        <g id="Tablet_ONEpage" sketch:type="MSArtboardGroup" transform="translate(-250.000000, -4751.000000)" fill="#0000FD">
            <g id="Group-4" sketch:type="MSLayerGroup" transform="translate(250.000000, 4751.000000)">
                <path d="M0.809184425,1.4769702 C1.47424092,1.83396816 10.6831346,6.7742539 11.0258798,6.95819492 C11.3688975,7.14213594 11.812995,7.23084123 12.260362,7.23084123 C12.7077289,7.23084123 13.1518264,7.14213594 13.4948441,6.95819492 C13.8375893,6.7742539 23.046483,1.83396816 23.7115395,1.4769702 C24.3768684,1.12024435 25.0067785,0 23.7842843,0 L0.736439614,0 C-0.485237284,0 0.143583028,1.12024435 0.809184425,1.4769702 L0.809184425,1.4769702 Z M23.9932553,4.19799121 C23.2377446,4.59172295 13.9574684,9.43840557 13.4948441,9.67921593 C13.0319474,9.92057049 12.7077289,9.95186223 12.260362,9.95186223 C11.812995,9.95186223 11.4887765,9.92057049 11.0258798,9.67921593 C10.5632555,9.43840557 1.28352418,4.59172295 0.527468566,4.19799121 C-0.00435866567,3.92099127 5.73933388e-07,4.24588118 5.73933388e-07,4.49675932 L5.73933388e-07,14.4771923 C5.73933388e-07,15.0475183 0.760687884,15.7819218 1.3510924,15.7819218 L23.1696315,15.7819218 C23.760036,15.7819218 24.5207233,15.0475183 24.5207233,14.4771923 L24.5207233,4.49675932 C24.5207233,4.24588118 24.5256275,3.92099127 23.9932553,4.19799121 L23.9932553,4.19799121 Z" id="Mail-Copy" sketch:type="MSShapeGroup"></path>
            </g>
        </g>
    </g>
</svg>