<?xml version="1.0" encoding="UTF-8" standalone="no"?>
<svg width="30px" height="29px" viewBox="0 0 30 29" version="1.1" xmlns="http://www.w3.org/2000/svg" xmlns:xlink="http://www.w3.org/1999/xlink" xmlns:sketch="http://www.bohemiancoding.com/sketch/ns">
    <!-- Generator: Sketch 3.5.2 (25235) - http://www.bohemiancoding.com/sketch -->
    <title>User</title>
    <desc>Created with Sketch.</desc>
    <defs></defs>
    <g id="Page-1" stroke="none" stroke-width="1" fill="none" fill-rule="evenodd" sketch:type="MSPage">
        <g id="Tablet_listado" sketch:type="MSArtboardGroup" transform="translate(-452.000000, -420.000000)" fill="#50E3C2">
            <path d="M475.283183,441.097551 C471.410737,439.687806 470.172912,438.49895 470.172912,435.953376 C470.172912,434.425027 471.355444,434.924227 471.874451,432.125444 C472.089971,430.964514 473.134268,432.106618 473.33408,429.456246 C473.33408,428.3998 472.764177,428.137492 472.764177,428.137492 C472.764177,428.137492 473.053841,426.574316 473.167256,425.371341 C473.307689,423.872486 472.30015,420 466.925662,420 C461.551175,420 460.543006,423.872486 460.684068,425.371341 C460.797483,426.574316 461.087147,428.137492 461.087147,428.137492 C461.087147,428.137492 460.517245,428.3998 460.517245,429.456246 C460.716742,432.106618 461.761039,430.964514 461.976559,432.125444 C462.496195,434.923913 463.678098,434.425027 463.678098,435.953376 C463.678098,438.49895 462.440901,439.687806 458.568455,441.097551 C454.683756,442.511376 452.160037,443.952812 452.160037,444.935837 L452.160037,448.23884 L466.925976,448.23884 L481.691915,448.23884 L481.691915,444.935837 C481.691601,443.952812 479.167882,442.511376 475.283183,441.097551 L475.283183,441.097551 Z" id="User" sketch:type="MSShapeGroup"></path>
        </g>
    </g>
</svg>