<?xml version="1.0" encoding="UTF-8" standalone="no"?>
<svg width="16px" height="16px" viewBox="0 0 16 16" version="1.1" xmlns="http://www.w3.org/2000/svg" xmlns:xlink="http://www.w3.org/1999/xlink" xmlns:sketch="http://www.bohemiancoding.com/sketch/ns">
    <!-- Generator: Sketch 3.5.2 (25235) - http://www.bohemiancoding.com/sketch -->
    <title>Group 2</title>
    <desc>Created with Sketch.</desc>
    <defs></defs>
    <g id="Page-1" stroke="none" stroke-width="1" fill="none" fill-rule="evenodd" sketch:type="MSPage">
        <g id="Tablet_ONEpage" sketch:type="MSArtboardGroup" transform="translate(-417.000000, -4751.000000)" fill="#0000FD">
            <g id="Group-2" sketch:type="MSLayerGroup" transform="translate(417.000000, 4751.000000)">
                <path d="M12.8349932,7.98821696 C12.8349932,10.6560957 10.669259,12.8183016 7.99868906,12.8183016 C5.32737505,12.8183016 3.16238489,10.6560957 3.16238489,7.98821696 C3.16238489,7.67036023 3.19400688,7.35993441 3.25241455,7.05935452 L0.000186011699,7.05935452 L0.000186011699,13.4800232 C0.000186011699,14.8588266 1.11848834,15.9764339 2.49981122,15.9764339 L13.4977529,15.9764339 C14.8775877,15.9764339 15.9973781,14.8588266 15.9973781,13.4800232 L15.9973781,7.05935452 L12.7447776,7.05935452 C12.8033712,7.35993441 12.8349932,7.67036023 12.8349932,7.98821696 L12.8349932,7.98821696 Z M13.4975669,0 L2.49962521,0 C1.11830233,0 0,1.11797883 0,2.49641069 L0,5.20162965 L4.04910266,5.20162965 C4.92503175,3.96568529 6.36699444,3.15813229 7.99850305,3.15813229 C9.62982564,3.15813229 11.0716023,3.96568529 11.9473454,5.20162965 L15.9970061,5.20162965 L15.9970061,2.49641069 C15.9971921,1.11779306 14.8774017,0 13.4975669,0 L13.4975669,0 Z M14.7194777,3.08363752 C14.7194777,3.32904297 14.5189571,3.52949149 14.2734217,3.52949149 L12.9339514,3.52949149 C12.688788,3.52949149 12.4875234,3.32904297 12.4875234,3.08363752 L12.4875234,1.74626138 C12.4875234,1.50085593 12.688788,1.30040741 12.9339514,1.30040741 L14.2734217,1.30040741 C14.5189571,1.30040741 14.7194777,1.50085593 14.7194777,1.74626138 L14.7194777,3.08363752 L14.7194777,3.08363752 Z M10.9748762,7.98821696 C10.9748762,6.34654549 9.64228843,5.01585716 7.99868906,5.01585716 C6.35471766,5.01585716 5.02250188,6.34654549 5.02250188,7.98821696 C5.02250188,9.62988843 6.35471766,10.9605768 7.99868906,10.9605768 C9.64228843,10.9605768 10.9748762,9.62988843 10.9748762,7.98821696 L10.9748762,7.98821696 Z" id="Instagram-Copy-2" sketch:type="MSShapeGroup"></path>
            </g>
        </g>
    </g>
</svg>