<?xml version="1.0" encoding="UTF-8" standalone="no"?>
<svg width="17px" height="16px" viewBox="0 0 17 16" version="1.1" xmlns="http://www.w3.org/2000/svg" xmlns:xlink="http://www.w3.org/1999/xlink" xmlns:sketch="http://www.bohemiancoding.com/sketch/ns">
    <!-- Generator: Sketch 3.5.2 (25235) - http://www.bohemiancoding.com/sketch -->
    <title>S-Facebook</title>
    <desc>Created with Sketch.</desc>
    <defs></defs>
    <g id="Page-1" stroke="none" stroke-width="1" fill="none" fill-rule="evenodd" sketch:type="MSPage">
        <g id="Desktop_one_page" sketch:type="MSArtboardGroup" transform="translate(-837.000000, -4064.000000)" fill="#50E3C2">
            <path d="M851.003817,4064 L839.000545,4064 C837.900338,4064 837,4064.89918 837,4065.99797 L837,4077.98581 C837,4079.08479 837.900338,4079.98378 839.000545,4079.98378 L845.071223,4079.98378 L845.071223,4074.25267 L843.154794,4074.25267 L843.154794,4071.75585 L845.071223,4071.75585 L845.071223,4070.50503 C845.071223,4068.57694 846.496728,4067.06666 848.316573,4067.06666 L850.083008,4067.06666 L850.083008,4069.88593 L848.50267,4069.88593 C848.088976,4069.88593 847.967641,4070.12309 847.967641,4070.45094 L847.967641,4071.75585 L850.083008,4071.75585 L850.083008,4074.25267 L847.967641,4074.25267 L847.967641,4079.98378 L851.003631,4079.98378 C852.10421,4079.98378 853.004176,4079.08479 853.004176,4077.98581 L853.004176,4065.99797 C853.004362,4064.89918 852.104396,4064 851.003817,4064 L851.003817,4064 Z" id="S-Facebook" sketch:type="MSShapeGroup"></path>
        </g>
    </g>
</svg>