<?xml version="1.0" encoding="UTF-8" standalone="no"?>
<svg width="26px" height="26px" viewBox="0 0 26 26" version="1.1" xmlns="http://www.w3.org/2000/svg" xmlns:xlink="http://www.w3.org/1999/xlink" xmlns:sketch="http://www.bohemiancoding.com/sketch/ns">
    <!-- Generator: Sketch 3.5.2 (25235) - http://www.bohemiancoding.com/sketch -->
    <title>Group Copy 9</title>
    <desc>Created with Sketch.</desc>
    <defs></defs>
    <g id="Page-1" stroke="none" stroke-width="1" fill="none" fill-rule="evenodd" sketch:type="MSPage">
        <g id="Tablet_ONEpage" sketch:type="MSArtboardGroup" transform="translate(-527.000000, -1832.000000)">
            <g id="Group-Copy-9" sketch:type="MSLayerGroup" transform="translate(527.000000, 1832.000000)">
                <rect id="Rectangle-114-Copy-5" fill="#9B9B9B" sketch:type="MSShapeGroup" x="0" y="0" width="26" height="26"></rect>
                <g id="Shape-+-Shape-Copy-5" transform="translate(3.545455, 2.363636)" fill="#FFFFFF" sketch:type="MSShapeGroup">
                    <path d="M4.38448861,2.75929605 C4.38448861,3.83458374 3.54025026,4.70553642 2.15104358,4.70553642 C0.844238348,4.70553642 0,3.83458374 0,2.75929605 C0,1.65811244 0.871562066,0.812853365 2.20569101,0.812853365 C3.54025026,0.812651053 4.35759518,1.65791013 4.38448861,2.75929605 L4.38448861,2.75929605 Z M0.108864578,18.7656058 L0.108864578,6.24229753 L4.24873061,6.24229753 L4.24873061,18.7656058 L0.108864578,18.7656058 L0.108864578,18.7656058 Z" id="Shape"></path>
                    <path d="M6.27176367,10.2482343 C6.27176367,8.68618423 6.21754653,7.38026099 6.16332939,6.25318145 L9.75779679,6.25318145 L9.94906282,7.99468219 L10.0306037,7.99468219 C10.5751417,7.17471211 11.909701,5.97115868 14.143146,5.97115868 C16.8664816,5.97115868 18.9090909,7.68716812 18.9090909,11.3749092 L18.9090909,18.7764897 L14.7692249,18.7764897 L14.7692249,11.835978 C14.7692249,10.2223384 14.1700394,9.12155942 12.6719682,9.12155942 C11.5282446,9.12155942 10.8477335,9.86404405 10.5482483,10.5812397 C10.4389534,10.8371642 10.4116297,11.1958632 10.4116297,11.5545622 L10.4116297,18.7764897 L6.27176367,18.7764897 L6.27176367,10.2482343 L6.27176367,10.2482343 Z" id="Shape"></path>
                </g>
            </g>
        </g>
    </g>
</svg>