<?xml version="1.0" encoding="UTF-8" standalone="no"?>
<svg width="25px" height="16px" viewBox="0 0 25 16" version="1.1" xmlns="http://www.w3.org/2000/svg" xmlns:xlink="http://www.w3.org/1999/xlink" xmlns:sketch="http://www.bohemiancoding.com/sketch/ns">
    <!-- Generator: Sketch 3.5.2 (25235) - http://www.bohemiancoding.com/sketch -->
    <title>Mail Copy</title>
    <desc>Created with Sketch.</desc>
    <defs></defs>
    <g id="Page-1" stroke="none" stroke-width="1" fill="none" fill-rule="evenodd" sketch:type="MSPage">
        <g id="Desktop_one_page" sketch:type="MSArtboardGroup" transform="translate(-579.000000, -4064.000000)" fill="#50E3C2">
            <path d="M579.809184,4065.47697 C580.474241,4065.83397 589.683135,4070.77425 590.02588,4070.95819 C590.368897,4071.14214 590.812995,4071.23084 591.260362,4071.23084 C591.707729,4071.23084 592.151826,4071.14214 592.494844,4070.95819 C592.837589,4070.77425 602.046483,4065.83397 602.711539,4065.47697 C603.376868,4065.12024 604.006779,4064 602.784284,4064 L579.73644,4064 C578.514763,4064 579.143583,4065.12024 579.809184,4065.47697 L579.809184,4065.47697 Z M602.993255,4068.19799 C602.237745,4068.59172 592.957468,4073.43841 592.494844,4073.67922 C592.031947,4073.92057 591.707729,4073.95186 591.260362,4073.95186 C590.812995,4073.95186 590.488777,4073.92057 590.02588,4073.67922 C589.563255,4073.43841 580.283524,4068.59172 579.527469,4068.19799 C578.995641,4067.92099 579.000001,4068.24588 579.000001,4068.49676 L579.000001,4078.47719 C579.000001,4079.04752 579.760688,4079.78192 580.351092,4079.78192 L602.169632,4079.78192 C602.760036,4079.78192 603.520723,4079.04752 603.520723,4078.47719 L603.520723,4068.49676 C603.520723,4068.24588 603.525627,4067.92099 602.993255,4068.19799 L602.993255,4068.19799 Z" id="Mail-Copy" sketch:type="MSShapeGroup"></path>
        </g>
    </g>
</svg>