<?xml version="1.0" encoding="UTF-8" standalone="no"?>
<svg width="30px" height="30px" viewBox="0 0 30 30" version="1.1" xmlns="http://www.w3.org/2000/svg" xmlns:xlink="http://www.w3.org/1999/xlink" xmlns:sketch="http://www.bohemiancoding.com/sketch/ns">
    <!-- Generator: Sketch 3.5.2 (25235) - http://www.bohemiancoding.com/sketch -->
    <title>Flow-tree</title>
    <desc>Created with Sketch.</desc>
    <defs></defs>
    <g id="Page-1" stroke="none" stroke-width="1" fill="none" fill-rule="evenodd" sketch:type="MSPage">
        <g id="Tablet_listado" sketch:type="MSArtboardGroup" transform="translate(-623.000000, -419.000000)" fill="#50E3C2">
            <path d="M650.254153,441.271346 L650.254153,437.669011 C650.254153,435.493365 648.810861,432.256567 644.834739,432.256567 L641.69305,432.256567 C639.475018,432.256567 639.268609,431.169685 639.258241,430.609301 L639.258241,426.222868 C640.597857,425.644913 641.535966,424.315177 641.535966,422.765179 C641.535966,420.686173 639.847936,419 637.765939,419 C635.683941,419 633.995912,420.686173 633.995912,422.765179 C633.995912,424.314863 634.93402,425.644913 636.273637,426.222868 L636.273637,430.609301 C636.273637,431.015313 636.156137,432.256567 633.838827,432.256567 L630.697138,432.256567 C626.721017,432.256567 625.277725,435.493365 625.277725,437.669011 L625.277725,441.271346 C623.938108,441.848987 623,443.179036 623,444.728721 C623,446.808041 624.68803,448.4939 626.770027,448.4939 C628.852024,448.4939 630.540054,446.808041 630.540054,444.728721 C630.540054,443.17935 629.601946,441.848987 628.262329,441.271346 L628.262329,437.669011 C628.262329,437.262999 628.379828,435.237333 630.697138,435.237333 L633.838827,435.237333 C634.79233,435.237333 635.596603,435.093315 636.273637,434.849206 L636.273637,441.271659 C634.93402,441.849301 633.995912,443.17935 633.995912,444.729035 C633.995912,446.808355 635.683941,448.494213 637.765939,448.494213 C639.847936,448.494213 641.535966,446.808355 641.535966,444.729035 C641.535966,443.179664 640.597857,441.849301 639.258241,441.271659 L639.258241,434.849206 C639.935275,435.093315 640.739548,435.237333 641.69305,435.237333 L644.834739,435.237333 C647.052772,435.237333 647.259181,437.108627 647.269548,437.669011 L647.269548,441.271346 C645.929932,441.848987 644.991824,443.179036 644.991824,444.728721 C644.991824,446.808041 646.679853,448.4939 648.761851,448.4939 C650.843848,448.4939 652.531878,446.808041 652.531878,444.728721 C652.531878,443.179036 651.593769,441.848987 650.254153,441.271346 L650.254153,441.271346 Z M628.945018,444.728721 C628.945018,445.928244 627.970781,446.900915 626.770027,446.900915 C625.568959,446.900915 624.595036,445.928244 624.595036,444.728721 C624.595036,443.529198 625.568959,442.556527 626.770027,442.556527 C627.970781,442.556527 628.945018,443.528884 628.945018,444.728721 L628.945018,444.728721 Z M635.590947,422.765179 C635.590947,421.565656 636.565185,420.592984 637.765939,420.592984 C638.967007,420.592984 639.94093,421.565656 639.94093,422.765179 C639.94093,423.964702 638.967007,424.937373 637.765939,424.937373 C636.565185,424.937059 635.590947,423.964702 635.590947,422.765179 L635.590947,422.765179 Z M639.94093,444.728721 C639.94093,445.928244 638.967007,446.900915 637.765939,446.900915 C636.565185,446.900915 635.590947,445.928244 635.590947,444.728721 C635.590947,443.529198 636.565185,442.556527 637.765939,442.556527 C638.967007,442.556527 639.94093,443.528884 639.94093,444.728721 L639.94093,444.728721 Z M648.761851,446.900602 C647.561097,446.900602 646.586859,445.92793 646.586859,444.728407 C646.586859,443.528884 647.561097,442.556213 648.761851,442.556213 C649.962919,442.556213 650.936842,443.528884 650.936842,444.728407 C650.936842,445.92793 649.962919,446.900602 648.761851,446.900602 L648.761851,446.900602 Z" id="Flow-tree" sketch:type="MSShapeGroup"></path>
        </g>
    </g>
</svg>