<?xml version="1.0" encoding="UTF-8" standalone="no"?>
<svg width="25px" height="16px" viewBox="0 0 25 16" version="1.1" xmlns="http://www.w3.org/2000/svg" xmlns:xlink="http://www.w3.org/1999/xlink" xmlns:sketch="http://www.bohemiancoding.com/sketch/ns">
    <!-- Generator: Sketch 3.5.2 (25235) - http://www.bohemiancoding.com/sketch -->
    <title>Behance</title>
    <desc>Created with Sketch.</desc>
    <defs></defs>
    <g id="Page-1" stroke="none" stroke-width="1" fill="none" fill-rule="evenodd" sketch:type="MSPage">
        <g id="Desktop_one_page" sketch:type="MSArtboardGroup" transform="translate(-667.000000, -4064.000000)" fill="#50E3C2">
            <path d="M676.796677,4071.15351 C676.796677,4071.15351 679.093224,4070.97557 679.093224,4068.17191 C679.093224,4065.36801 677.21443,4064 674.833409,4064 L667,4064 L667,4079.66873 L674.833409,4079.66873 C674.833409,4079.66873 679.615597,4079.82534 679.615597,4075.04372 C679.615597,4075.04372 679.824352,4071.15351 676.796677,4071.15351 L676.796677,4071.15351 Z M670.452225,4066.78475 L674.833409,4066.78475 C674.833409,4066.78475 675.898302,4066.78475 675.898302,4068.41507 C675.898302,4070.04538 675.272523,4070.2815 674.561785,4070.2815 L670.452225,4070.2815 L670.452225,4066.78475 L670.452225,4066.78475 Z M674.612275,4076.88374 L670.452225,4076.88374 L670.452225,4072.6968 L674.833409,4072.6968 C674.833409,4072.6968 676.420675,4072.67498 676.420675,4074.84833 C676.420675,4076.68059 675.235141,4076.86968 674.612275,4076.88374 L674.612275,4076.88374 Z M685.99379,4067.98646 C680.204481,4067.98646 680.209335,4074.0059 680.209335,4074.0059 C680.209335,4074.0059 679.812458,4079.99552 685.99379,4079.99552 C685.99379,4079.99552 691.144455,4080.30268 691.144455,4075.82919 L688.49618,4075.82919 C688.49618,4075.82919 688.583808,4077.51381 686.082147,4077.51381 C686.082147,4077.51381 683.432901,4077.69853 683.432901,4074.78797 L691.233297,4074.78797 C691.233055,4074.78821 692.086765,4067.98646 685.99379,4067.98646 L685.99379,4067.98646 Z M688.348109,4072.6968 L683.403287,4072.6968 C683.403287,4072.6968 683.726614,4070.2815 686.052047,4070.2815 C688.376995,4070.2815 688.348109,4072.6968 688.348109,4072.6968 L688.348109,4072.6968 Z M688.965393,4064.92243 L682.755175,4064.92243 L682.755175,4066.85287 L688.965393,4066.85287 L688.965393,4064.92243 L688.965393,4064.92243 Z" id="Behance" sketch:type="MSShapeGroup"></path>
        </g>
    </g>
</svg>